<svg width="218" height="338" viewBox="0 0 218 338" fill="none" xmlns="http://www.w3.org/2000/svg">
    <path d="M36.8745 5.51453C44.1948 -1.83818 56.0633 -1.83818 63.3836 5.51454L212.51 155.301C219.83 162.654 219.83 174.575 212.51 181.928L181.411 213.164C174.091 220.517 162.222 220.517 154.902 213.164L5.77593 63.3773C-1.54437 56.0246 -1.54437 44.1035 5.77594 36.7508L36.8745 5.51453Z"/>
    <path d="M212.224 156.072C219.544 163.425 219.544 175.346 212.224 182.699L63.0979 332.485C55.7776 339.838 43.909 339.838 36.5887 332.485L5.49022 301.249C-1.83008 293.897 -1.83007 281.975 5.49023 274.623L154.616 124.836C161.937 117.483 173.805 117.483 181.126 124.836L212.224 156.072Z"/>
    <style>
        path { fill: #7A7A7A; }
    </style>
</svg>